<svg preserveAspectRatio="xMinYMin" version="1.1" id="Layer_1-270743821-1574954037-1821776315" x="0px" y="0px" width="78.104px" height="16.475px" viewBox="0 0 78.104 17.5" enable-background="new 0 0 78.104 17.5" xml:space="preserve">
<title>Sin título-1 copia</title><path d="M10.05,16.23H7.89V12.81h-3v3.42H2.73V7.83H4.89v3.3h3V7.83h2.16Z" transform="translate(-2.73 -7.71)"></path><path d="M19.05,14a2.51,2.51,0,0,1-.57,1.83,2.51,2.51,0,0,1-1.83.57h-3a2.51,2.51,0,0,1-1.83-.57A2.51,2.51,0,0,1,11.25,14V10.11a2.51,2.51,0,0,1,.57-1.83,2.51,2.51,0,0,1,1.83-.57h3a2.51,2.51,0,0,1,1.83.57,2.51,2.51,0,0,1,.57,1.83Zm-2.16-3.84a.64.64,0,0,0-.72-.72h-2a.64.64,0,0,0-.72.72V14a.64.64,0,0,0,.72.72h2a.64.64,0,0,0,.72-.72Z" transform="translate(-2.73 -7.71)"></path><path d="M20.25,7.83h5a2.51,2.51,0,0,1,1.83.57,2.51,2.51,0,0,1,.57,1.83v1.2a2.51,2.51,0,0,1-.57,1.83,2.51,2.51,0,0,1-1.83.57H22.41v2.4H20.25Zm5.28,2.4a.64.64,0,0,0-.72-.72h-2.4v2.64h2.4a.64.64,0,0,0,.72-.72Z" transform="translate(-2.73 -7.71)"></path><path d="M36,11.55l-1.68,3H32.61l-1.68-3v4.68H28.77V7.83h2.28l2.4,4.44,2.4-4.44h2.28v8.4H36Z" transform="translate(-2.73 -7.71)"></path><path d="M41.07,16.23H38.73l3.18-8.4h2.4l3.18,8.4H45.15l-.54-1.5h-3Zm1.08-3.06h1.92l-1-2.82Z" transform="translate(-2.73 -7.71)"></path><path d="M47.84,14.49c2.19.12,3.68.18,4.45.18a.58.58,0,0,0,.44-.16.6.6,0,0,0,.16-.44V13H50.13a2.51,2.51,0,0,1-1.83-.57,2.51,2.51,0,0,1-.57-1.83v-.36A2.51,2.51,0,0,1,48.3,8.4a2.51,2.51,0,0,1,1.83-.57h4.21V9.51H50.61a.64.64,0,0,0-.72.72v.24a.64.64,0,0,0,.72.72h2.16a2.35,2.35,0,0,1,1.73.55,2.36,2.36,0,0,1,.55,1.73v.6a2.36,2.36,0,0,1-.55,1.73,2.35,2.35,0,0,1-1.73.55l-1.29,0-1.11,0c-.81,0-1.66-.1-2.53-.17Z" transform="translate(-2.73 -7.71)"></path><path d="M59.61,16.23H57.45V9.51H54.93V7.83h7.2V9.51H59.61Z" transform="translate(-2.73 -7.71)"></path><path d="M69.63,16.23H63V7.83h6.66V9.51h-4.5v1.62h3.54v1.68H65.13v1.74h4.5Z" transform="translate(-2.73 -7.71)"></path><path d="M70.59,7.83h5a2.51,2.51,0,0,1,1.83.57A2.51,2.51,0,0,1,78,10.23v1.08a3.05,3.05,0,0,1-.33,1.55,1.61,1.61,0,0,1-1,.73l1.5,2.64H75.81l-1.38-2.52H72.75v2.52H70.59Zm5.28,2.4a.64.64,0,0,0-.72-.72h-2.4V12h2.4a.64.64,0,0,0,.72-.72Z" transform="translate(-2.73 -7.71)"></path><path d="M79,14.49c2.19.12,3.68.18,4.45.18a.58.58,0,0,0,.44-.16.6.6,0,0,0,.16-.44V13H81.27a2.51,2.51,0,0,1-1.83-.57,2.51,2.51,0,0,1-.57-1.83v-.36a2.51,2.51,0,0,1,.57-1.83,2.51,2.51,0,0,1,1.83-.57h4.21V9.51H81.75a.64.64,0,0,0-.72.72v.24a.64.64,0,0,0,.72.72h2.16a2.35,2.35,0,0,1,1.73.55,2.36,2.36,0,0,1,.55,1.73v.6a2.36,2.36,0,0,1-.55,1.73,2.35,2.35,0,0,1-1.73.55l-1.29,0-1.11,0c-.81,0-1.66-.1-2.53-.17Z" transform="translate(-2.73 -7.71)"></path></svg>